<svg id="prodb_symbol_only" xmlns="http://www.w3.org/2000/svg" xmlns:xlink="http://www.w3.org/1999/xlink" x="0px" y="0px"
	 viewBox="0 0 141.1 141.2" style="enable-background:new 0 0 141.1 141.2;" xml:space="preserve">
<style type="text/css">
	.st0{clip-path:url(#SVGID_00000031174030511709142930000004600937256329816231_);}
	.st1{fill:none;}
	.st2{fill:none;}
	.st3{fill:#E98937;}
	.st4{fill:#D34A46;}
	.st5{fill:#179940;}
	.st6{fill:#1CA1DE;}
</style>
<g>
	<defs>
		<polygon id="SVGID_1_" points="-328.4,-228.4 -327.4,-228.4 -328.4,-227.4 		"/>
	</defs>
	<defs>
		<polygon id="SVGID_00000132058256819654348580000018019201695275996821_" points="-330.4,-230.4 -331.4,-230.4 -330.4,-231.4 		
			"/>
	</defs>
	<clipPath id="SVGID_00000101785415496955031030000009981529522759059096_">
		<use xlink:href="#SVGID_1_"  style="overflow:visible;"/>
	</clipPath>
	
		<clipPath id="SVGID_00000047053238868840624200000017583117696789494656_" style="clip-path:url(#SVGID_00000101785415496955031030000009981529522759059096_);">
		<use xlink:href="#SVGID_00000132058256819654348580000018019201695275996821_"  style="overflow:visible;"/>
	</clipPath>
</g>
<rect x="-107.9" y="-82.3" class="st1" width="800" height="600"/>
<g transform="translate(139.99999618530273,95.00149917602539)">
	<g>
		<rect x="-140" y="-95" class="st2" width="141.2" height="141.2"/>
		<path class="st3" d="M1.2-42.6v16.1c0.1,0.9-0.3,1.7-0.9,2.3L-18.3-5.6C-23.1-0.8-27.9,4-32.7,8.8c-0.6,0.6-1.4,0.9-2.2,0.9h-26.6
			c-0.3,0-0.8,0.2-0.9-0.3c-0.2-0.4,0.1-0.7,0.4-1l3.6-3.6c9-9,18.1-18.1,27.1-27.1c0.7-0.7,1.1-1.6,1-2.5v-35.7
			c0-0.8-0.3-1.7-0.9-2.2c-2.5-2.5-5-4.9-7.5-7.4c-2-2-4.3-4-6.3-6.2c-2.4-2.6-5.1-5.1-7.6-7.7c-2.5-2.6-4.5-4.6-6.9-6.9
			c-0.8-0.9-1.7-1.8-2.6-2.6c-0.4-0.2-0.6-0.6-0.4-1c0.2-0.4,0.6-0.4,0.9-0.4h26.7c0.6,0,1.3,0.2,1.7,0.7
			c7.3,7.4,14.7,14.8,22.2,22.2c3.7,3.7,7.4,7.4,11.1,11c0.6,0.6,1,1.4,0.9,2.3C1.2-53.4,1.2-48,1.2-42.6z"/>
		<path class="st4" d="M-87.6-63.4h-18c-0.9,0-1.7,0.3-2.3,0.9c-2.7,2.7-5.5,5.4-8.2,8c-2.7,2.6-5.7,6-8.7,8.8
			c-2.5,2.3-4.8,4.7-7.2,7.1c-2,2-4.2,4-6.1,6.2c-0.3,0.3-0.5,0.6-0.8,0.8c-0.5,0.5-0.9,0.5-1.1-0.3c-0.1-0.8-0.1-1.6,0-2.5v-23.4
			c-0.1-1.5,0.6-3,1.8-4c2.7-2.5,5.3-5.2,7.9-7.8c3.3-3.3,6.6-6.5,9.8-9.8l10.5-10.5c1.4-1.4,2.8-2.8,4.2-4.2c0.6-0.6,1.3-1,2.2-1
			h32c0.9,0,1.8,0.4,2.5,1.1c3.4,3.4,6.8,6.9,10.2,10.3l8.9,8.8l10.6,10.6c1,1,2,2,3,2.9c0.8,0.7,1.3,1.8,1.3,2.9v26.4
			c0,0.3,0,0.7-0.4,0.8c-0.3,0.1-0.6-0.1-0.8-0.3c-2-2.1-4.2-4.2-6.2-6.3c-0.6-0.6-1.2-1.1-1.8-1.7c-3.6-3.7-7.3-7.4-10.9-11.1
			c-4-4-8-8-12.1-12c-0.5-0.5-1.3-0.8-2-0.8L-87.6-63.4z"/>
		<path class="st5" d="M-90.7,46.2h-12.8c-1.1,0-2.1-0.4-2.8-1.2c-3-3.1-6-6.2-9.2-9.2c-3.6-3.5-7.1-7.2-10.7-10.7l-10.7-10.6
			c-0.1-0.2-0.3-0.3-0.5-0.4c-2-1.6-3-4.1-2.6-6.6c0.2-9,0.2-18,0-27c-0.2-2.5,0.9-4.9,2.8-6.6c6-5.7,11.6-11.6,17.4-17.4l9.3-9.3
			c1.5-1.5,2.9-2.9,4.4-4.4c0.7-0.7,1.6-1.1,2.6-1h26.4c0.3,0,0.8,0,0.9,0.4c0.1,0.4-0.1,0.6-0.4,0.8c-2,2-4,3.9-6,5.9
			c-1.3,1.3-2.6,2.7-4,4c-1.4,1.3-3.2,3.1-4.7,4.6l-4.6,4.9l-4.6,4.5c-1.7,1.7-3.3,3.3-5,5c-0.8,0.7-1.6,1.5-2.3,2.3
			c-0.3,0.4-0.5,0.9-0.6,1.5v36.7c0,1.4,1,2,1.8,2.9c1.8,1.9,3.7,3.5,5.5,5.4c1.3,1.5,2.7,2.9,4.2,4.2c1.8,1.5,3.2,3.5,4.9,5
			c2.6,2.3,4.7,5,7.3,7.3c1.1,1,2,2.1,3,3.1c1.6,1.6,3.2,3.1,4.8,4.6c0.3,0.3,0.7,0.6,0.6,1.1c-0.2,0.5-0.7,0.4-1.1,0.4L-90.7,46.2z
			"/>
		<path class="st6" d="M-51.1,46.1h-16c-0.8,0-1.5-0.3-2-0.9c-11.1-11.1-22.1-22.1-33.2-33.2c-0.6-0.5-0.9-1.2-0.9-2v-26.3
			c0-0.4-0.2-0.9,0.3-1.2c0.5-0.2,0.8,0.2,1.1,0.5c1.8,2.2,4,4.2,6,6.2C-88.5-3.3-81.3,4-74,11.2c0.9,0.9,1.9,1.8,2.7,2.7
			c0.6,0.6,1.4,0.9,2.3,0.9h35.5c1.3,0,2.6-0.6,3.4-1.6c4.5-4.6,9.1-9.1,13.6-13.6l12.3-12.5c1.3-1.3,2.7-2.7,4-4
			c0.2-0.2,0.5-0.6,0.9-0.4s0.3,0.6,0.3,1v8.9c0,5.5-0.1,11,0,16.4c0,1.5-0.6,3-1.8,4c-4.5,4.5-9,9-13.5,13.5l-13.5,13.5
			c-1.7,1.7-3.3,3.4-5,5.1c-0.6,0.7-1.5,1.1-2.4,1.1C-40.4,46.1-45.7,46.1-51.1,46.1L-51.1,46.1z"/>
	</g>
</g>
</svg>
